<svg width="176" height="101" viewBox="0 0 176 101" fill="none" xmlns="http://www.w3.org/2000/svg">
  <path d="M1.99999 50.8332C1.99999 50.8332 8.48154 49.5711 9.14573 49.4947C14.2898 49.213 19.4694 49.4695 24.6043 50.0152C37.6066 51.4638 48.999 56.0419 58.643 65.0309C64.3875 70.4653 67.8497 76.0847 63.3772 83.1592C58.6951 90.4386 47.0166 89.2509 42.7034 81.844C38.6754 74.895 40.4347 61.96 43.414 54.954C47.2004 46.1763 57.4275 39.8604 64.9887 34.6776C87.3379 19.3741 124.604 16.1723 149.791 25.5171C156.851 28.1916 165.814 31.2154 171.185 36.7703" stroke="#2C2C2C" stroke-width="3" stroke-miterlimit="1.5" stroke-linecap="round" transform="scale(-1, 1) translate(-176, 0)"/>
  <path d="M145.52 9.53769C145.644 9.4975 145.849 9.70635 145.89 9.83088C148.559 12.1323 150.894 14.6789 153.354 17.1852C157.864 21.7802 162 26.4957 166.175 31.3357C167.855 33.1311 169.535 34.9266 171.256 36.8465C171.718 37.3175 171.294 37.8589 170.582 37.7504C167.73 37.0196 164.837 36.1643 161.984 35.4336C154.376 33.6227 144.231 32.4911 137.824 38.2643" stroke="#2C2C2C" stroke-width="3" stroke-miterlimit="1.5" stroke-linecap="round" transform="scale(-1, 1) translate(-176, 0)"/>
</svg>
